# xmcd
#
# Track frame offsets: 
#        150
#        11270
#        20909
#        34709
#        45926
#        59682
#        70012
#        84645
#        99405
#        115144
#        125575
#        139152
#        153106
#        164783
#        174818
#        186088
#
# Disc length: 2694 seconds
#
# Revision: 0
# Processed by: cddbd v1.5.2PL0 Copyright (c) Steve Scherf et al.
# Submitted via: ExactAudioCopy v0.99pb4
#
DISCID=cd0a8410
DTITLE=Willie Nelson - On the road again: the best of [CD 2)
DYEAR=2010
DGENRE=Country
TTITLE0=Good times
TTITLE1=Mountain dew
TTITLE2=Have I told you lately that I love you ?
TTITLE3=The party's over
TTITLE4=Both sides now
TTITLE5=To make a long story short
TTITLE6=What now my love
TTITLE7=Bloody mary morning
TTITLE8=What can you do to me now ?
TTITLE9=December day
TTITLE10=Yesterday's wine
TTITLE11=If you can touch her at all
TTITLE12=One in a row
TTITLE13=Bring me sunshine
TTITLE14=Mamas, don't let your babies grow up to be cowboys
TTITLE15=Always on my mind
EXTD=
EXTT0=
EXTT1=
EXTT2=
EXTT3=
EXTT4=
EXTT5=
EXTT6=
EXTT7=
EXTT8=
EXTT9=
EXTT10=
EXTT11=
EXTT12=
EXTT13=
EXTT14=
EXTT15=
PLAYORDER=
